# Blender v2.75 (sub 0) OBJ File: 'widget.blend'
# www.blender.org
v -0.218750 -0.218750 -0.000000
v 0.218750 -0.218750 0.000000
v -0.218750 0.218750 -0.000000
v 0.218750 0.218750 0.000000
v -0.187500 -0.187500 0.125000
v 0.187500 -0.187500 0.125000
v -0.187500 0.187500 0.125000
v 0.187500 0.187500 0.125000
vn 0.000000 0.000000 -1.000000
vn -0.000000 -0.000000 1.000000
vn 0.970100 0.000000 0.242500
vn -0.970100 -0.000000 0.242500
vn -0.000000 0.970100 0.242500
vn -0.000000 -0.970100 0.242500
s off
f 1//1 3//1 4//1 2//1
f 5//2 6//2 8//2 7//2
f 2//3 4//3 8//3 6//3
f 3//4 1//4 5//4 7//4
f 4//5 3//5 7//5 8//5
f 1//6 2//6 6//6 5//6
